<?xml version="1.0" encoding="UTF-8" ?>
<!DOCTYPE svg PUBLIC "-//W3C//DTD SVG 1.1//EN" "http://www.w3.org/Graphics/SVG/1.1/DTD/svg11.dtd">
<svg width="1343pt" height="1140pt" viewBox="0 0 1343 1140" version="1.1" xmlns="http://www.w3.org/2000/svg">
<g id="#c73639ff">
<path fill="#c73639" opacity="1.00" d=" M 590.72 65.48 C 598.31 27.78 635.60 -1.16 673.97 0.56 C 714.80 0.93 751.68 36.21 753.90 76.96 C 757.38 113.18 733.27 149.67 698.92 161.30 C 681.31 167.37 661.69 167.38 644.08 161.29 C 605.81 148.66 581.12 104.70 590.72 65.48 M 665.52 39.75 C 644.31 42.64 626.96 62.48 627.56 83.99 C 627.88 103.52 642.64 121.79 661.73 126.10 C 687.77 133.05 716.43 109.87 715.38 83.01 C 716.06 57.65 690.43 35.73 665.52 39.75 Z" />
<path fill="#c73639" opacity="1.00" d=" M 0.00 600.41 C 82.21 600.11 164.44 600.27 246.66 600.38 C 246.84 612.88 246.72 625.40 246.69 637.91 C 177.08 638.21 107.45 637.86 37.83 638.09 C 37.71 736.46 37.70 834.85 37.83 933.23 C 411.86 933.43 785.90 933.36 1159.92 933.26 C 1159.96 892.14 1160.23 851.02 1159.76 809.91 C 1160.06 805.65 1157.03 802.39 1154.94 799.03 C 1127.72 756.96 1099.00 715.87 1072.32 673.46 C 1089.65 673.40 1107.00 672.91 1124.31 673.61 C 1143.48 704.48 1162.23 735.63 1181.66 766.34 C 1201.66 735.49 1221.44 704.47 1241.41 673.62 C 1258.98 672.93 1276.57 673.27 1294.15 673.51 C 1265.11 717.75 1233.93 760.56 1204.72 804.70 C 1204.14 805.44 1203.84 806.27 1203.80 807.20 C 1201.96 861.72 1203.51 916.28 1202.94 970.81 C 801.97 971.18 400.98 971.13 0.00 970.82 L 0.00 600.41 Z" />
<path fill="#c73639" opacity="1.00" d=" M 276.53 600.79 C 287.14 599.70 298.21 600.65 309.00 600.33 C 653.67 600.33 998.34 600.18 1343.00 600.39 L 1343.00 970.71 C 1306.31 971.43 1269.55 970.90 1232.83 970.94 C 1232.75 958.42 1232.66 945.89 1232.91 933.38 C 1256.99 933.15 1281.08 933.47 1305.16 933.20 C 1305.30 834.83 1305.29 736.45 1305.17 638.09 C 976.62 638.05 648.06 637.92 319.52 638.17 C 319.48 712.04 319.47 785.92 319.52 859.79 C 320.12 859.92 321.32 860.18 321.92 860.31 C 359.98 860.29 398.04 860.32 436.11 860.37 C 436.38 873.55 436.22 886.75 436.13 899.93 C 382.97 900.09 329.80 900.09 276.64 899.99 C 276.38 800.26 276.55 700.52 276.53 600.79 Z" />
</g>
<g id="#ffffffff">
<path fill="#ffffff" opacity="1.00" d=" M 644.08 161.29 C 661.69 167.38 681.31 167.37 698.92 161.30 C 699.32 213.99 699.01 266.68 699.11 319.37 C 714.30 319.46 729.48 319.35 744.66 319.42 C 744.75 326.72 744.69 334.02 744.68 341.32 C 746.02 341.91 747.55 341.47 748.98 341.60 C 856.42 341.57 963.86 341.66 1071.30 341.56 L 1071.69 342.12 C 1071.72 410.73 1071.69 479.34 1071.70 547.95 C 1036.29 548.03 1000.88 548.05 965.48 547.91 C 965.46 508.95 965.54 469.99 965.46 431.03 C 889.49 431.01 813.51 431.01 737.54 431.03 C 737.46 470.00 737.52 508.96 737.51 547.92 C 694.51 548.05 651.49 548.05 608.49 547.92 C 608.60 508.96 607.51 470.00 607.88 431.03 C 532.10 430.97 456.32 431.00 380.54 431.02 C 380.46 469.98 380.52 508.95 380.51 547.92 C 344.11 548.07 307.70 548.02 271.30 547.95 C 271.42 479.15 271.02 410.29 271.53 341.53 C 380.44 341.44 489.49 341.96 598.32 341.33 C 598.30 334.02 598.25 326.72 598.34 319.42 C 613.52 319.35 628.70 319.45 643.89 319.37 C 643.99 266.68 643.66 213.98 644.08 161.29 Z" />
<path fill="#ffffff" opacity="1.00" d=" M 109.23 670.90 C 135.75 662.81 164.73 663.15 191.16 671.42 C 210.91 677.51 228.83 692.13 237.17 710.93 C 225.73 716.72 214.31 722.55 203.00 728.60 C 189.74 711.33 167.48 702.31 145.98 703.34 C 133.05 703.54 119.11 706.21 109.49 715.50 C 100.75 723.50 99.44 739.28 108.68 747.40 C 117.95 754.68 129.73 757.63 141.17 759.36 C 160.91 762.09 180.99 764.22 199.82 771.08 C 214.04 776.35 227.74 785.12 235.54 798.47 C 246.40 817.27 246.56 841.00 239.04 861.02 C 230.10 882.42 208.80 896.31 186.82 901.50 C 157.40 908.80 125.80 908.07 97.07 898.16 C 74.93 890.36 57.63 871.74 48.97 850.21 C 60.86 843.58 73.02 837.25 85.20 831.29 C 92.30 846.95 106.81 858.64 123.14 863.55 C 143.87 869.07 167.32 869.19 186.45 858.44 C 199.26 851.56 205.12 833.48 197.32 820.87 C 191.17 811.36 180.00 806.99 169.49 804.28 C 143.99 798.73 116.82 798.76 93.07 786.84 C 77.87 780.03 65.33 766.54 61.48 750.13 C 57.44 733.24 58.66 714.28 68.27 699.41 C 77.73 685.15 93.13 675.88 109.23 670.90 Z" />
<path fill="#ffffff" opacity="1.00" d=" M 465.12 672.83 C 521.90 672.78 578.68 672.78 635.46 672.83 C 635.51 686.82 635.56 700.81 635.44 714.80 C 578.67 714.79 521.90 714.82 465.13 714.78 C 465.07 700.80 465.08 686.81 465.12 672.83 Z" />
<path fill="#ffffff" opacity="1.00" d=" M 667.30 672.85 C 724.10 672.77 780.90 672.77 837.69 672.85 C 837.70 686.82 837.72 700.79 837.68 714.76 C 780.90 714.83 724.12 714.83 667.34 714.76 C 667.30 700.79 667.31 686.82 667.30 672.85 Z" />
<path fill="#ffffff" opacity="1.00" d=" M 870.12 672.83 C 906.75 672.76 943.38 672.82 980.01 672.80 C 1002.98 672.54 1026.56 681.71 1041.56 699.48 C 1064.83 726.30 1067.12 768.50 1048.06 798.23 C 1037.04 815.79 1018.31 827.74 998.10 831.71 C 986.90 834.25 975.38 833.49 964.00 833.60 C 947.23 833.57 930.47 833.65 913.70 833.56 C 912.74 855.53 913.63 878.02 913.20 900.19 C 898.84 900.26 884.48 900.19 870.13 900.17 C 870.08 824.39 870.08 748.61 870.12 672.83 M 913.32 714.24 C 913.28 740.81 913.31 767.38 913.30 793.95 C 933.88 793.58 954.47 794.72 975.04 793.69 C 981.87 793.21 988.98 793.19 995.29 790.15 C 1013.06 782.05 1022.32 759.49 1015.64 741.18 C 1011.21 725.35 995.24 714.24 979.01 714.25 C 957.11 714.18 935.21 714.17 913.32 714.24 Z" />
<path fill="#ffffff" opacity="1.00" d=" M 465.15 766.41 C 520.53 766.58 576.03 766.03 631.32 766.68 C 631.29 779.89 631.29 793.11 631.32 806.32 C 623.03 806.98 614.52 806.42 606.15 806.59 C 605.99 800.01 606.19 793.42 606.06 786.84 C 595.40 786.76 584.74 786.78 574.08 786.89 C 572.40 795.32 567.07 804.35 557.97 806.01 C 549.13 806.82 539.16 808.03 531.38 802.78 C 526.01 799.28 524.30 792.71 522.86 786.87 C 512.01 786.83 501.15 786.70 490.31 786.87 C 490.29 793.36 490.29 799.84 490.32 806.33 C 482.02 806.96 473.52 806.42 465.15 806.59 C 465.06 793.20 465.06 779.80 465.15 766.41 Z" />
<path fill="#ffffff" opacity="1.00" d=" M 667.34 766.46 C 722.73 766.45 778.12 766.29 833.50 766.48 C 833.23 779.85 834.18 793.27 832.82 806.61 C 824.65 806.62 816.49 806.61 808.34 806.58 C 808.20 800.00 808.38 793.42 808.23 786.85 C 797.60 786.78 786.96 786.73 776.34 786.87 C 774.64 795.00 769.80 803.93 761.01 805.76 C 751.67 807.06 740.95 808.18 732.92 802.15 C 727.91 798.65 726.74 792.28 725.05 786.83 C 714.25 787.04 703.03 786.24 692.50 787.24 C 692.49 793.66 692.51 800.09 692.51 806.52 C 684.12 806.69 675.72 806.58 667.34 806.58 C 667.27 793.20 667.27 779.83 667.34 766.46 Z" />
<path fill="#ffffff" opacity="1.00" d=" M 465.11 857.63 C 521.89 857.58 578.68 857.58 635.46 857.63 C 635.52 871.82 635.51 886.01 635.44 900.20 C 578.67 900.26 521.91 900.26 465.15 900.20 C 465.09 886.01 465.11 871.82 465.11 857.63 Z" />
<path fill="#ffffff" opacity="1.00" d=" M 667.30 900.15 C 667.55 885.98 666.78 871.54 667.68 857.56 C 724.22 857.63 780.76 857.63 837.29 857.56 C 838.25 871.50 837.44 886.00 837.69 900.15 C 780.90 900.23 724.10 900.24 667.30 900.15 Z" />
<path fill="#ffffff" opacity="1.00" d=" M 1214.50 1013.79 C 1233.92 1011.19 1255.40 1016.24 1269.18 1030.82 C 1291.00 1054.78 1291.07 1094.76 1270.37 1119.42 C 1247.49 1145.37 1202.17 1145.61 1178.81 1120.18 C 1158.16 1096.44 1157.26 1057.70 1177.31 1033.32 C 1186.41 1022.10 1200.25 1015.37 1214.50 1013.79 M 1217.15 1023.11 C 1202.51 1024.26 1188.85 1032.65 1181.20 1045.17 C 1167.39 1067.49 1170.93 1099.73 1190.70 1117.44 C 1207.88 1132.20 1234.98 1133.36 1253.66 1120.73 C 1280.63 1102.14 1283.12 1058.69 1260.01 1036.05 C 1248.70 1025.43 1232.36 1021.19 1217.15 1023.11 Z" />
<path fill="#ffffff" opacity="1.00" d=" M 69.13 1026.14 C 78.80 1016.62 92.94 1013.79 106.04 1013.50 C 123.62 1011.91 143.08 1018.79 152.42 1034.50 C 149.83 1036.37 146.83 1037.58 144.01 1039.06 C 132.96 1022.96 110.71 1020.16 93.02 1024.68 C 84.29 1026.85 74.97 1031.80 72.08 1040.93 C 69.08 1048.35 72.82 1057.48 79.84 1061.11 C 100.47 1071.73 125.96 1068.15 145.38 1081.69 C 161.24 1093.95 158.01 1122.10 140.47 1131.29 C 121.88 1140.55 99.02 1141.57 79.99 1132.96 C 70.56 1128.48 61.17 1121.18 57.16 1111.52 C 60.09 1110.16 63.00 1108.78 65.99 1107.59 C 80.59 1130.47 114.35 1135.84 136.76 1121.71 C 146.73 1114.80 148.77 1097.93 138.92 1090.07 C 118.41 1075.90 90.73 1081.07 70.22 1066.91 C 57.53 1057.46 58.10 1036.67 69.13 1026.14 Z" />
<path fill="#ffffff" opacity="1.00" d=" M 285.71 1015.77 C 318.05 1014.90 350.95 1015.58 383.51 1015.48 C 383.49 1018.43 383.54 1021.40 383.47 1024.37 C 368.88 1024.61 354.20 1024.04 339.68 1024.65 C 339.67 1061.89 339.75 1099.14 339.67 1136.37 C 336.33 1136.67 333.00 1136.96 329.67 1137.33 C 329.30 1099.72 329.55 1062.10 329.50 1024.48 C 314.92 1024.35 300.34 1024.52 285.76 1024.40 C 285.68 1021.51 285.73 1018.64 285.71 1015.77 Z" />
<path fill="#ffffff" opacity="1.00" d=" M 524.52 1015.44 C 527.67 1015.36 530.82 1015.38 533.98 1015.38 C 534.51 1042.92 533.29 1070.50 534.96 1098.02 C 536.89 1116.16 554.87 1130.64 572.98 1129.07 C 590.23 1128.32 606.32 1114.04 607.19 1096.45 C 608.55 1069.47 607.56 1042.44 607.96 1015.44 C 611.12 1015.35 614.30 1015.37 617.47 1015.43 C 617.56 1041.94 617.95 1068.45 617.40 1094.95 C 617.04 1108.14 610.86 1121.18 600.19 1129.10 C 582.95 1141.95 556.93 1141.59 540.26 1127.90 C 530.03 1119.46 524.54 1106.17 524.46 1093.05 C 524.49 1067.18 524.47 1041.31 524.52 1015.44 Z" />
<path fill="#ffffff" opacity="1.00" d=" M 762.14 1015.41 C 781.15 1016.19 800.41 1013.04 819.24 1016.89 C 831.86 1019.36 843.78 1026.03 851.79 1036.20 C 869.79 1059.05 869.56 1094.52 850.90 1116.92 C 841.96 1127.74 828.51 1134.02 814.76 1135.85 C 797.31 1138.47 779.67 1136.04 762.13 1136.59 C 762.07 1096.20 762.07 1055.80 762.14 1015.41 M 772.30 1025.05 C 772.30 1059.02 772.30 1092.98 772.30 1126.95 C 792.70 1126.26 815.32 1130.46 833.41 1118.49 C 862.17 1099.59 861.89 1050.68 832.43 1032.56 C 814.43 1021.34 792.34 1025.60 772.30 1025.05 Z" />
<path fill="#ffffff" opacity="1.00" d=" M 1008.17 1015.37 C 1011.53 1015.55 1015.01 1015.04 1018.32 1015.66 C 1017.88 1055.97 1019.11 1096.30 1017.67 1136.61 C 1014.50 1136.65 1011.32 1136.60 1008.16 1136.57 C 1008.03 1096.17 1008.08 1055.77 1008.17 1015.37 Z" />
</g>
</svg>
